<svg xmlns="http://www.w3.org/2000/svg" viewBox="0 0 1440 320"><path fill="#372459" fill-opacity="1" d="M0,32L0,96L120,96L120,160L240,160L240,160L360,160L360,256L480,256L480,224L600,224L600,256L720,256L720,224L840,224L840,288L960,288L960,256L1080,256L1080,160L1200,160L1200,224L1320,224L1320,96L1440,96L1440,320L1320,320L1320,320L1200,320L1200,320L1080,320L1080,320L960,320L960,320L840,320L840,320L720,320L720,320L600,320L600,320L480,320L480,320L360,320L360,320L240,320L240,320L120,320L120,320L0,320L0,320Z"></path></svg>
