<svg xmlns="http://www.w3.org/2000/svg" viewBox="0 0 1440 320"><path fill="#372459" fill-opacity="1" d="M0,192L0,224L120,224L120,288L240,288L240,160L360,160L360,64L480,64L480,64L600,64L600,0L720,0L720,256L840,256L840,192L960,192L960,128L1080,128L1080,96L1200,96L1200,224L1320,224L1320,0L1440,0L1440,320L1320,320L1320,320L1200,320L1200,320L1080,320L1080,320L960,320L960,320L840,320L840,320L720,320L720,320L600,320L600,320L480,320L480,320L360,320L360,320L240,320L240,320L120,320L120,320L0,320L0,320Z"></path></svg>
