<svg xmlns="http://www.w3.org/2000/svg" viewBox="0 0 1440 320"><path fill="#372459" fill-opacity="1" d="M0,288L0,288L120,288L120,256L240,256L240,224L360,224L360,64L480,64L480,256L600,256L600,64L720,64L720,288L840,288L840,128L960,128L960,0L1080,0L1080,0L1200,0L1200,64L1320,64L1320,128L1440,128L1440,320L1320,320L1320,320L1200,320L1200,320L1080,320L1080,320L960,320L960,320L840,320L840,320L720,320L720,320L600,320L600,320L480,320L480,320L360,320L360,320L240,320L240,320L120,320L120,320L0,320L0,320Z"></path></svg>
